<svg width="48" height="16" viewBox="0 0 48 16" fill="none" xmlns="http://www.w3.org/2000/svg">
<g filter="url(#filter0_ii_39_22)">
<rect width="48" height="16" fill="#C7B5C7"/>
</g>
<rect x="0.5" y="0.5" width="47" height="15" stroke="#586060"/>
<g filter="url(#filter1_d_39_22)">
<path d="M16.824 3.68C16.824 3.92533 16.8027 4.13867 16.76 4.32H14.84C14.8827 4.49067 14.904 4.704 14.904 4.96C14.904 5.20533 14.8827 5.41867 14.84 5.6C14.8827 5.77067 14.904 5.984 14.904 6.24C14.904 6.48533 14.8827 6.69867 14.84 6.88C14.8827 7.05067 14.904 7.264 14.904 7.52C14.904 7.76533 14.8827 7.97867 14.84 8.16C14.8827 8.33067 14.904 8.544 14.904 8.8C14.904 9.04533 14.8827 9.25867 14.84 9.44C14.8827 9.61067 14.904 9.824 14.904 10.08C14.904 10.3253 14.8827 10.5387 14.84 10.72C14.8827 10.8907 14.904 11.104 14.904 11.36C14.904 11.6053 14.8827 11.8187 14.84 12H13.56C13.5173 11.8187 13.496 11.6053 13.496 11.36C13.496 11.104 13.5173 10.8907 13.56 10.72C13.5173 10.5387 13.496 10.3253 13.496 10.08C13.496 9.824 13.5173 9.61067 13.56 9.44C13.5173 9.25867 13.496 9.04533 13.496 8.8C13.496 8.544 13.5173 8.33067 13.56 8.16C13.5173 7.97867 13.496 7.76533 13.496 7.52C13.496 7.264 13.5173 7.05067 13.56 6.88C13.5173 6.69867 13.496 6.48533 13.496 6.24C13.496 5.984 13.5173 5.77067 13.56 5.6C13.5173 5.41867 13.496 5.20533 13.496 4.96C13.496 4.704 13.5173 4.49067 13.56 4.32H11.64C11.5973 4.13867 11.576 3.92533 11.576 3.68C11.576 3.424 11.5973 3.21067 11.64 3.04H16.76C16.8027 3.21067 16.824 3.424 16.824 3.68ZM23.2303 3.68C23.2303 3.92533 23.2089 4.13867 23.1663 4.32C23.2089 4.49067 23.2303 4.704 23.2303 4.96C23.2303 5.20533 23.2089 5.41867 23.1663 5.6H22.5263C22.5689 5.77067 22.5903 5.984 22.5903 6.24C22.5903 6.48533 22.5689 6.69867 22.5263 6.88H21.8863C21.9289 7.05067 21.9503 7.264 21.9503 7.52C21.9503 7.76533 21.9289 7.97867 21.8863 8.16H21.2463C21.2889 8.33067 21.3103 8.544 21.3103 8.8C21.3103 9.04533 21.2889 9.25867 21.2463 9.44C21.2889 9.61067 21.3103 9.824 21.3103 10.08C21.3103 10.3253 21.2889 10.5387 21.2463 10.72C21.2889 10.8907 21.3103 11.104 21.3103 11.36C21.3103 11.6053 21.2889 11.8187 21.2463 12H19.9663C19.9236 11.8187 19.9023 11.6053 19.9023 11.36C19.9023 11.104 19.9236 10.8907 19.9663 10.72C19.9236 10.5387 19.9023 10.3253 19.9023 10.08C19.9023 9.824 19.9236 9.61067 19.9663 9.44C19.9236 9.25867 19.9023 9.04533 19.9023 8.8C19.9023 8.544 19.9236 8.33067 19.9663 8.16H19.3263C19.2836 7.97867 19.2623 7.76533 19.2623 7.52C19.2623 7.264 19.2836 7.05067 19.3263 6.88H18.6863C18.6436 6.69867 18.6223 6.48533 18.6223 6.24C18.6223 5.984 18.6436 5.77067 18.6863 5.6H18.0463C18.0036 5.41867 17.9823 5.20533 17.9823 4.96C17.9823 4.704 18.0036 4.49067 18.0463 4.32C18.0036 4.13867 17.9823 3.92533 17.9823 3.68C17.9823 3.424 18.0036 3.21067 18.0463 3.04H19.3263C19.3689 3.21067 19.3903 3.424 19.3903 3.68C19.3903 3.92533 19.3689 4.13867 19.3263 4.32C19.3689 4.49067 19.3903 4.704 19.3903 4.96C19.3903 5.20533 19.3689 5.41867 19.3263 5.6H19.9663C20.0089 5.77067 20.0303 5.984 20.0303 6.24C20.0303 6.48533 20.0089 6.69867 19.9663 6.88H21.2463C21.2036 6.69867 21.1823 6.48533 21.1823 6.24C21.1823 5.984 21.2036 5.77067 21.2463 5.6H21.8863C21.8436 5.41867 21.8223 5.20533 21.8223 4.96C21.8223 4.704 21.8436 4.49067 21.8863 4.32C21.8436 4.13867 21.8223 3.92533 21.8223 3.68C21.8223 3.424 21.8436 3.21067 21.8863 3.04H23.1663C23.2089 3.21067 23.2303 3.424 23.2303 3.68ZM29.6365 4.96C29.6365 5.20533 29.6152 5.41867 29.5725 5.6C29.6152 5.77067 29.6365 5.984 29.6365 6.24C29.6365 6.48533 29.6152 6.69867 29.5725 6.88H28.9325C28.9752 7.05067 28.9965 7.264 28.9965 7.52C28.9965 7.76533 28.9752 7.97867 28.9325 8.16H25.7325C25.7752 8.33067 25.7965 8.544 25.7965 8.8C25.7965 9.04533 25.7752 9.25867 25.7325 9.44C25.7752 9.61067 25.7965 9.824 25.7965 10.08C25.7965 10.3253 25.7752 10.5387 25.7325 10.72C25.7752 10.8907 25.7965 11.104 25.7965 11.36C25.7965 11.6053 25.7752 11.8187 25.7325 12H24.4525C24.4098 11.8187 24.3885 11.6053 24.3885 11.36C24.3885 11.104 24.4098 10.8907 24.4525 10.72C24.4098 10.5387 24.3885 10.3253 24.3885 10.08C24.3885 9.824 24.4098 9.61067 24.4525 9.44C24.4098 9.25867 24.3885 9.04533 24.3885 8.8C24.3885 8.544 24.4098 8.33067 24.4525 8.16C24.4098 7.97867 24.3885 7.76533 24.3885 7.52C24.3885 7.264 24.4098 7.05067 24.4525 6.88C24.4098 6.69867 24.3885 6.48533 24.3885 6.24C24.3885 5.984 24.4098 5.77067 24.4525 5.6C24.4098 5.41867 24.3885 5.20533 24.3885 4.96C24.3885 4.704 24.4098 4.49067 24.4525 4.32C24.4098 4.13867 24.3885 3.92533 24.3885 3.68C24.3885 3.424 24.4098 3.21067 24.4525 3.04H28.9325C28.9752 3.21067 28.9965 3.424 28.9965 3.68C28.9965 3.92533 28.9752 4.13867 28.9325 4.32H29.5725C29.6152 4.49067 29.6365 4.704 29.6365 4.96ZM28.2925 6.88C28.2498 6.69867 28.2285 6.48533 28.2285 6.24C28.2285 5.984 28.2498 5.77067 28.2925 5.6C28.2498 5.41867 28.2285 5.20533 28.2285 4.96C28.2285 4.704 28.2498 4.49067 28.2925 4.32H25.7325C25.7752 4.49067 25.7965 4.704 25.7965 4.96C25.7965 5.20533 25.7752 5.41867 25.7325 5.6C25.7752 5.77067 25.7965 5.984 25.7965 6.24C25.7965 6.48533 25.7752 6.69867 25.7325 6.88H28.2925ZM32.7788 8.16C32.8214 8.33067 32.8428 8.544 32.8428 8.8C32.8428 9.04533 32.8214 9.25867 32.7788 9.44C32.8214 9.61067 32.8428 9.824 32.8428 10.08C32.8428 10.3253 32.8214 10.5387 32.7788 10.72H35.3388C35.3814 10.8907 35.4028 11.104 35.4028 11.36C35.4028 11.6053 35.3814 11.8187 35.3388 12H31.4988C31.4561 11.8187 31.4348 11.6053 31.4348 11.36C31.4348 11.104 31.4561 10.8907 31.4988 10.72C31.4561 10.5387 31.4348 10.3253 31.4348 10.08C31.4348 9.824 31.4561 9.61067 31.4988 9.44C31.4561 9.25867 31.4348 9.04533 31.4348 8.8C31.4348 8.544 31.4561 8.33067 31.4988 8.16C31.4561 7.97867 31.4348 7.76533 31.4348 7.52C31.4348 7.264 31.4561 7.05067 31.4988 6.88C31.4561 6.69867 31.4348 6.48533 31.4348 6.24C31.4348 5.984 31.4561 5.77067 31.4988 5.6C31.4561 5.41867 31.4348 5.20533 31.4348 4.96C31.4348 4.704 31.4561 4.49067 31.4988 4.32C31.4561 4.13867 31.4348 3.92533 31.4348 3.68C31.4348 3.424 31.4561 3.21067 31.4988 3.04H35.3388C35.3814 3.21067 35.4028 3.424 35.4028 3.68C35.4028 3.92533 35.3814 4.13867 35.3388 4.32H32.7788C32.8214 4.49067 32.8428 4.704 32.8428 4.96C32.8428 5.20533 32.8214 5.41867 32.7788 5.6C32.8214 5.77067 32.8428 5.984 32.8428 6.24C32.8428 6.48533 32.8214 6.69867 32.7788 6.88H35.3388C35.3814 7.05067 35.4028 7.264 35.4028 7.52C35.4028 7.76533 35.3814 7.97867 35.3388 8.16H32.7788Z" fill="white"/>
</g>
<rect x="47" width="1" height="1" fill="#C7B5C7"/>
<rect x="44" y="3" width="1" height="1" fill="#586060" fill-opacity="0.55"/>
<rect x="1" y="1" width="1" height="1" fill="white"/>
<rect x="3" y="12" width="1" height="1" fill="#586060" fill-opacity="0.55"/>
<rect x="3" y="3" width="1" height="1" fill="#586060" fill-opacity="0.55"/>
<rect x="44" y="12" width="1" height="1" fill="#586060" fill-opacity="0.55"/>
<rect x="47" y="15" width="1" height="1" fill="#C7B5C7"/>
<rect x="46" y="14" width="1" height="1" fill="#586060"/>
<rect width="1" height="1" fill="#C7B5C7"/>
<rect y="15" width="1" height="1" fill="#C7B5C7"/>
<defs>
<filter id="filter0_ii_39_22" x="0" y="0" width="48" height="16" filterUnits="userSpaceOnUse" color-interpolation-filters="sRGB">
<feFlood flood-opacity="0" result="BackgroundImageFix"/>
<feBlend mode="normal" in="SourceGraphic" in2="BackgroundImageFix" result="shape"/>
<feColorMatrix in="SourceAlpha" type="matrix" values="0 0 0 0 0 0 0 0 0 0 0 0 0 0 0 0 0 0 127 0" result="hardAlpha"/>
<feOffset dx="2" dy="2"/>
<feComposite in2="hardAlpha" operator="arithmetic" k2="-1" k3="1"/>
<feColorMatrix type="matrix" values="0 0 0 0 1 0 0 0 0 0.983333 0 0 0 0 0.983333 0 0 0 0.46 0"/>
<feBlend mode="normal" in2="shape" result="effect1_innerShadow_39_22"/>
<feColorMatrix in="SourceAlpha" type="matrix" values="0 0 0 0 0 0 0 0 0 0 0 0 0 0 0 0 0 0 127 0" result="hardAlpha"/>
<feOffset dx="-2" dy="-2"/>
<feComposite in2="hardAlpha" operator="arithmetic" k2="-1" k3="1"/>
<feColorMatrix type="matrix" values="0 0 0 0 0 0 0 0 0 0 0 0 0 0 0 0 0 0 0.25 0"/>
<feBlend mode="normal" in2="effect1_innerShadow_39_22" result="effect2_innerShadow_39_22"/>
</filter>
<filter id="filter1_d_39_22" x="11.576" y="3.04001" width="24.8268" height="9.95999" filterUnits="userSpaceOnUse" color-interpolation-filters="sRGB">
<feFlood flood-opacity="0" result="BackgroundImageFix"/>
<feColorMatrix in="SourceAlpha" type="matrix" values="0 0 0 0 0 0 0 0 0 0 0 0 0 0 0 0 0 0 127 0" result="hardAlpha"/>
<feOffset dx="1" dy="1"/>
<feComposite in2="hardAlpha" operator="out"/>
<feColorMatrix type="matrix" values="0 0 0 0 0.439216 0 0 0 0 0.470588 0 0 0 0 0.470588 0 0 0 1 0"/>
<feBlend mode="normal" in2="BackgroundImageFix" result="effect1_dropShadow_39_22"/>
<feBlend mode="normal" in="SourceGraphic" in2="effect1_dropShadow_39_22" result="shape"/>
</filter>
</defs>
</svg>
