<svg width="54" height="459" viewBox="0 0 54 459" fill="none" xmlns="http://www.w3.org/2000/svg">
<g filter="url(#filter0_d_22_291)">
<path d="M3 449.684V8.1841C20.2 -3.0159 39.1667 3.51743 46.5 8.1841V449.684C30.1 426.084 10.6667 439.851 3 449.684Z" fill="#D5092B" stroke="black" stroke-width="2" stroke-linejoin="round"/>
<path d="M3.5 60.9972C19.9025 57.2943 29.1017 57.1988 45.5 60.9972" stroke="black" stroke-linejoin="round"/>
<path d="M3.5 379.997C19.9025 376.294 29.1017 376.199 45.5 379.997" stroke="black" stroke-linejoin="round"/>
<path d="M3.5 68.9972C19.9025 65.2943 29.1017 65.1988 45.5 68.9972" stroke="black" stroke-linejoin="round"/>
<path d="M3.5 387.997C19.9025 384.294 29.1017 384.199 45.5 387.997" stroke="black" stroke-linejoin="round"/>
<path d="M3.5 450.184C10.4251 439.619 28.7202 424.829 46.5 450.184H3.5Z" fill="#930018" stroke="black" stroke-linejoin="round"/>
</g>
<defs>
<filter id="filter0_d_22_291" x="0" y="0.998672" width="53.5" height="457.685" filterUnits="userSpaceOnUse" color-interpolation-filters="sRGB">
<feFlood flood-opacity="0" result="BackgroundImageFix"/>
<feColorMatrix in="SourceAlpha" type="matrix" values="0 0 0 0 0 0 0 0 0 0 0 0 0 0 0 0 0 0 127 0" result="hardAlpha"/>
<feOffset dx="2" dy="4"/>
<feGaussianBlur stdDeviation="2"/>
<feComposite in2="hardAlpha" operator="out"/>
<feColorMatrix type="matrix" values="0 0 0 0 0 0 0 0 0 0 0 0 0 0 0 0 0 0 0.45 0"/>
<feBlend mode="normal" in2="BackgroundImageFix" result="effect1_dropShadow_22_291"/>
<feBlend mode="normal" in="SourceGraphic" in2="effect1_dropShadow_22_291" result="shape"/>
</filter>
</defs>
</svg>
